<?xml version="1.0" encoding="UTF-8" standalone="no"?>
<svg width="48px" height="48px" viewBox="0 0 48 48" version="1.1" xmlns="http://www.w3.org/2000/svg" xmlns:xlink="http://www.w3.org/1999/xlink">
    <!-- Generator: Sketch 42 (36781) - http://www.bohemiancoding.com/sketch -->
    <title>Group</title>
    <desc>Created with Sketch.</desc>
    <defs></defs>
    <g id="Page-1" stroke="none" stroke-width="1" fill="none" fill-rule="evenodd">
        <g id="Desktop-HD" transform="translate(-131.000000, -266.000000)" fill-rule="nonzero" fill="#393939">
            <g id="Content" transform="translate(60.000000, 80.000000)">
                <g id="ico-prev" transform="translate(95.000000, 210.000000) rotate(180.000000) translate(-95.000000, -210.000000) translate(71.000000, 186.000000)">
                    <g id="Group">
                        <path d="M24,47.9 C10.8,47.9 0.1,37.2 0.1,24 C0.1,10.8 10.8,0.1 24,0.1 C37.2,0.1 47.9,10.8 47.9,24 C47.9,37.2 37.2,47.9 24,47.9 L24,47.9 Z M24,2.7 C12.3,2.7 2.7,12.3 2.7,24 C2.7,35.7 12.3,45.3 24,45.3 C35.7,45.3 45.3,35.7 45.3,24 C45.3,12.3 35.7,2.7 24,2.7 L24,2.7 Z" id="Fill-25"></path>
                        <polyline id="Fill-26" points="23.5 37.7 21.7 35.8 33.4 24 21.7 12.2 23.5 10.3 37.2 24 23.5 37.7"></polyline>
                        <polygon id="Fill-27" points="35.3 25.4 11.3 25.4 11.3 22.6 35.3 22.6"></polygon>
                    </g>
                </g>
            </g>
        </g>
    </g>
</svg>